<svg xmlns="http://www.w3.org/2000/svg" version="1.1" xmlns:xlink="http://www.w3.org/1999/xlink" width="31" height="31"><svg width="31" height="31" viewBox="0 0 31 31" fill="none" xmlns="http://www.w3.org/2000/svg">
<path d="M28.0976 14.5539H1.57884C-0.192585 14.5539 0.27839 10.9338 0.735306 9.12367C1.59642 6.08342 5.40761 -0.15493 15.2337 0.0029169C28.3612 0.2138 29.6265 11.2325 29.6792 12.9723C29.7214 14.3642 28.6424 14.6067 28.0976 14.5539Z" fill="#FFBC1E"></path>
<circle cx="14.7078" cy="4.90604" r="0.5" fill="#F6920F" stroke="#FEC820" stroke-width="0.687076"></circle>
<circle cx="8.59159" cy="6.59305" r="0.5" fill="#F6920F" stroke="#FEC820" stroke-width="0.687076"></circle>
<path d="M21.6592 6.09229C22.0503 5.70122 22.685 5.70122 23.0762 6.09229C23.4673 6.48344 23.4673 7.11808 23.0762 7.50928L17.0859 13.4995C17.0511 13.5344 17.013 13.5646 16.9746 13.5933C17.0357 13.7959 17.0693 14.0104 17.0693 14.2329C17.0693 15.4558 16.0783 16.4467 14.8555 16.4468C13.6326 16.4468 12.6406 15.4558 12.6406 14.2329C12.6406 14.0154 12.673 13.8055 12.7314 13.6069C12.6824 13.573 12.6355 13.5344 12.5918 13.4907L9.89062 10.7896C9.49972 10.3984 9.49969 9.76466 9.89062 9.37354C10.2818 8.98235 10.9164 8.98235 11.3076 9.37354L14.0088 12.0747C14.0359 12.1018 14.0607 12.1304 14.084 12.1597C14.3244 12.0702 14.5838 12.019 14.8555 12.019C15.1191 12.0191 15.371 12.0673 15.6055 12.1519C15.6253 12.128 15.6466 12.1049 15.6689 12.0825L21.6592 6.09229Z" fill="#2E3539"></path>
<path d="M27.8896 15.9219C29.0251 15.9219 29.946 16.8422 29.9463 17.9775C29.9463 19.1131 29.0252 20.0342 27.8896 20.0342H2.05664C0.921075 20.0342 0 19.1131 0 17.9775C0.000252377 16.8422 0.921231 15.9219 2.05664 15.9219H12.752C13.1079 16.6684 13.867 17.1855 14.749 17.1855C15.6311 17.1855 16.3902 16.6685 16.7461 15.9219H27.8896Z" fill="#2E3539"></path>
<rect y="20.6943" width="30.0107" height="3.95745" rx="1.97872" fill="#FE4E3F"></rect>
<path d="M2.10889 24.6733H28.2586C28.2586 28.1674 25.4261 30.9999 21.932 30.9999H8.43543C4.94138 30.9999 2.10889 28.1674 2.10889 24.6733Z" fill="#FFBC1E"></path>
</svg><style>@media (prefers-color-scheme: light) { :root { filter: none; } }
@media (prefers-color-scheme: dark) { :root { filter: none; } }
</style></svg>