<svg width="18" height="18" viewBox="0 0 18 18" fill="none" xmlns="http://www.w3.org/2000/svg">
<path d="M8 0C10.1217 0 12.1566 0.846326 13.6569 2.3528C15.1571 3.85927 16 5.90248 16 8.03295C16 10.7766 14.5102 13.0223 12.9404 14.6334C12.1562 15.4296 11.3004 16.1514 10.384 16.7898L10.0053 17.0486L9.82756 17.1673L9.49244 17.3815L9.19378 17.5645L8.824 17.7805C8.57301 17.9243 8.289 18 8 18C7.711 18 7.42699 17.9243 7.176 17.7805L6.80622 17.5645L6.344 17.2789L6.17333 17.1673L5.80889 16.9236C4.82029 16.252 3.89947 15.4849 3.05956 14.6334C1.48978 13.0214 0 10.7766 0 8.03295C0 5.90248 0.842855 3.85927 2.34315 2.3528C3.84344 0.846326 5.87827 0 8 0ZM8 5.3553C7.64981 5.3553 7.30305 5.42456 6.97951 5.55912C6.65598 5.69369 6.362 5.89092 6.11438 6.13956C5.86676 6.38821 5.67033 6.68339 5.53632 7.00826C5.40231 7.33312 5.33333 7.68131 5.33333 8.03295C5.33333 8.38458 5.40231 8.73277 5.53632 9.05764C5.67033 9.38251 5.86676 9.67769 6.11438 9.92633C6.362 10.175 6.65598 10.3722 6.97951 10.5068C7.30305 10.6413 7.64981 10.7106 8 10.7106C8.70724 10.7106 9.38552 10.4285 9.88562 9.92633C10.3857 9.42418 10.6667 8.74311 10.6667 8.03295C10.6667 7.32279 10.3857 6.64172 9.88562 6.13956C9.38552 5.63741 8.70724 5.3553 8 5.3553Z" fill="#222222"/>
</svg>
