<svg width="18" height="18" viewBox="0 0 18 18" fill="none" xmlns="http://www.w3.org/2000/svg">
<path d="M5.17421 0.666667C5.17421 0.489856 5.1031 0.320286 4.97651 0.195262C4.84992 0.0702379 4.67823 0 4.49921 0C4.32019 0 4.1485 0.0702379 4.02192 0.195262C3.89533 0.320286 3.82421 0.489856 3.82421 0.666667V2.07111C2.52821 2.17333 1.67861 2.424 1.05401 3.04178C0.428512 3.65867 0.174713 4.49867 0.0703125 5.77778H17.9281C17.8237 4.49778 17.5699 3.65867 16.9444 3.04178C16.3198 2.424 15.4693 2.17333 14.1742 2.07022V0.666667C14.1742 0.489856 14.1031 0.320286 13.9765 0.195262C13.8499 0.0702379 13.6782 0 13.4992 0C13.3202 0 13.1485 0.0702379 13.0219 0.195262C12.8953 0.320286 12.8242 0.489856 12.8242 0.666667V2.01156C12.2257 2 11.5543 2 10.7992 2H7.19921C6.44411 2 5.77271 2 5.17421 2.01156V0.666667Z" fill="#222222"/>
<path fill-rule="evenodd" clip-rule="evenodd" d="M0 9.11133C0 8.36555 1.00583e-08 7.70244 0.0117 7.11133H17.9883C18 7.70244 18 8.36555 18 9.11133V10.8891C18 14.2411 18 15.9175 16.9452 16.9584C15.8904 17.9993 14.1939 18.0002 10.8 18.0002H7.2C3.8061 18.0002 2.1087 18.0002 1.0548 16.9584C0.000899935 15.9167 0 14.2411 0 10.8891V9.11133ZM13.5 10.8891C13.7387 10.8891 13.9676 10.7955 14.1364 10.6288C14.3052 10.4621 14.4 10.236 14.4 10.0002C14.4 9.76447 14.3052 9.53838 14.1364 9.37168C13.9676 9.20498 13.7387 9.11133 13.5 9.11133C13.2613 9.11133 13.0324 9.20498 12.8636 9.37168C12.6948 9.53838 12.6 9.76447 12.6 10.0002C12.6 10.236 12.6948 10.4621 12.8636 10.6288C13.0324 10.7955 13.2613 10.8891 13.5 10.8891ZM13.5 14.4447C13.7387 14.4447 13.9676 14.351 14.1364 14.1843C14.3052 14.0176 14.4 13.7915 14.4 13.5558C14.4 13.32 14.3052 13.0939 14.1364 12.9272C13.9676 12.7605 13.7387 12.6669 13.5 12.6669C13.2613 12.6669 13.0324 12.7605 12.8636 12.9272C12.6948 13.0939 12.6 13.32 12.6 13.5558C12.6 13.7915 12.6948 14.0176 12.8636 14.1843C13.0324 14.351 13.2613 14.4447 13.5 14.4447ZM9.9 10.0002C9.9 10.236 9.80518 10.4621 9.6364 10.6288C9.46761 10.7955 9.23869 10.8891 9 10.8891C8.7613 10.8891 8.53239 10.7955 8.3636 10.6288C8.19482 10.4621 8.1 10.236 8.1 10.0002C8.1 9.76447 8.19482 9.53838 8.3636 9.37168C8.53239 9.20498 8.7613 9.11133 9 9.11133C9.23869 9.11133 9.46761 9.20498 9.6364 9.37168C9.80518 9.53838 9.9 9.76447 9.9 10.0002ZM9.9 13.5558C9.9 13.7915 9.80518 14.0176 9.6364 14.1843C9.46761 14.351 9.23869 14.4447 9 14.4447C8.7613 14.4447 8.53239 14.351 8.3636 14.1843C8.19482 14.0176 8.1 13.7915 8.1 13.5558C8.1 13.32 8.19482 13.0939 8.3636 12.9272C8.53239 12.7605 8.7613 12.6669 9 12.6669C9.23869 12.6669 9.46761 12.7605 9.6364 12.9272C9.80518 13.0939 9.9 13.32 9.9 13.5558ZM4.5 10.8891C4.73869 10.8891 4.96761 10.7955 5.1364 10.6288C5.30518 10.4621 5.4 10.236 5.4 10.0002C5.4 9.76447 5.30518 9.53838 5.1364 9.37168C4.96761 9.20498 4.73869 9.11133 4.5 9.11133C4.26131 9.11133 4.03239 9.20498 3.8636 9.37168C3.69482 9.53838 3.6 9.76447 3.6 10.0002C3.6 10.236 3.69482 10.4621 3.8636 10.6288C4.03239 10.7955 4.26131 10.8891 4.5 10.8891ZM4.5 14.4447C4.73869 14.4447 4.96761 14.351 5.1364 14.1843C5.30518 14.0176 5.4 13.7915 5.4 13.5558C5.4 13.32 5.30518 13.0939 5.1364 12.9272C4.96761 12.7605 4.73869 12.6669 4.5 12.6669C4.26131 12.6669 4.03239 12.7605 3.8636 12.9272C3.69482 13.0939 3.6 13.32 3.6 13.5558C3.6 13.7915 3.69482 14.0176 3.8636 14.1843C4.03239 14.351 4.26131 14.4447 4.5 14.4447Z" fill="#222222"/>
</svg>
