<svg width="18" height="18" viewBox="0 0 18 18" fill="none" xmlns="http://www.w3.org/2000/svg">
<path fill-rule="evenodd" clip-rule="evenodd" d="M0.999975 0C0.734765 0 0.480417 0.105358 0.292886 0.292897C0.105354 0.480435 0 0.734792 0 1.00001V9.00011C0 9.26533 0.105354 9.51969 0.292886 9.70722C0.480417 9.89476 0.734765 10.0001 0.999975 10.0001H1.99995V12.0001C1.99999 12.1979 2.05866 12.3912 2.16854 12.5556C2.27843 12.72 2.43458 12.8482 2.61728 12.9238C2.79997 12.9995 3.001 13.0193 3.19495 12.9807C3.3889 12.9422 3.56706 12.847 3.70691 12.7072L6.41384 10.0001H11.9997C12.2649 10.0001 12.5193 9.89476 12.7068 9.70722C12.8943 9.51969 12.9997 9.26533 12.9997 9.00011V1.00001C12.9997 0.734792 12.8943 0.480435 12.7068 0.292897C12.5193 0.105358 12.2649 0 11.9997 0H0.999975Z" fill="#222222"/>
<path fill-rule="evenodd" clip-rule="evenodd" d="M5.02344 14.2151C5.05677 14.1844 5.08944 14.1531 5.12144 14.1211L7.24338 12.0001H12.0003C12.7959 12.0001 13.5589 11.684 14.1215 11.1214C14.6841 10.5588 15.0002 9.79571 15.0002 9.00005V5H17.0001C17.2653 5 17.5197 5.10536 17.7072 5.2929C17.8948 5.48044 18.0001 5.73479 18.0001 6.00001V14.0001C18.0001 14.2653 17.8948 14.5197 17.7072 14.7072C17.5197 14.8948 17.2653 15.0001 17.0001 15.0001H16.0002V17.0001C16.0001 17.1979 15.9414 17.3912 15.8316 17.5556C15.7217 17.72 15.5655 17.8482 15.3828 17.9238C15.2001 17.9995 14.9991 18.0193 14.8052 17.9807C14.6112 17.9422 14.4331 17.847 14.2932 17.7072L11.5863 15.0001H6.00041C5.77249 15.0002 5.55137 14.9224 5.3737 14.7797C5.19602 14.6369 5.07244 14.4377 5.02344 14.2151Z" fill="#222222"/>
</svg>
