<svg width="109" height="31" viewBox="0 0 109 31" fill="none" xmlns="http://www.w3.org/2000/svg">
<path d="M28.0976 14.5539H1.57884C-0.192585 14.5539 0.27839 10.9338 0.735306 9.12367C1.59642 6.08342 5.40761 -0.15493 15.2337 0.0029169C28.3612 0.2138 29.6265 11.2325 29.6792 12.9723C29.7214 14.3642 28.6424 14.6067 28.0976 14.5539Z" fill="#FFBC1E"/>
<circle cx="14.7078" cy="4.90604" r="0.5" fill="#F6920F" stroke="#FEC820" stroke-width="0.687076"/>
<circle cx="8.59159" cy="6.59305" r="0.5" fill="#F6920F" stroke="#FEC820" stroke-width="0.687076"/>
<path d="M21.6597 6.09229C22.0508 5.70139 22.6845 5.70146 23.0757 6.09229C23.4669 6.48347 23.4669 7.11809 23.0757 7.50928L17.0854 13.4995C17.0507 13.5342 17.0133 13.5647 16.9751 13.5933C17.0361 13.7958 17.0698 14.0105 17.0698 14.2329C17.0697 15.4558 16.0778 16.4468 14.855 16.4468C13.6323 16.4465 12.6412 15.4556 12.6411 14.2329C12.6411 14.0151 12.6733 13.8048 12.7319 13.606C12.683 13.5721 12.6359 13.5343 12.5923 13.4907L9.89111 10.7896C9.49995 10.3984 9.5 9.76473 9.89111 9.37354C10.2823 8.98235 10.9159 8.98235 11.3071 9.37354L14.0083 12.0737C14.0354 12.1009 14.0611 12.1294 14.0845 12.1587C14.3246 12.0694 14.5837 12.0181 14.855 12.0181C15.1187 12.0181 15.3714 12.0663 15.606 12.1509C15.6256 12.1272 15.6473 12.1047 15.6694 12.0825L21.6597 6.09229Z" fill="#2E3539"/>
<path d="M27.8896 15.9219C29.0251 15.9219 29.946 16.8422 29.9463 17.9775C29.9463 19.1131 29.0252 20.0342 27.8896 20.0342H2.05664C0.921076 20.0342 0 19.1131 0 17.9775C0.000252376 16.8422 0.921231 15.9219 2.05664 15.9219H12.751C13.1071 16.6683 13.8669 17.1845 14.749 17.1846C15.6311 17.1845 16.3902 16.6682 16.7461 15.9219H27.8896Z" fill="#2E3539"/>
<rect y="20.6943" width="30.0107" height="3.95745" rx="1.97872" fill="#FE4E3F"/>
<path d="M2.10889 24.6733H28.2586C28.2586 28.1674 25.4261 30.9999 21.932 30.9999H8.43543C4.94138 30.9999 2.10889 28.1674 2.10889 24.6733Z" fill="#FFBC1E"/>
<path d="M43.0667 21.612C42.2454 21.612 41.5094 21.4787 40.8587 21.212C40.2081 20.9453 39.6854 20.5507 39.2907 20.028C38.9067 19.5053 38.7041 18.876 38.6827 18.14H41.5947C41.6374 18.556 41.7814 18.876 42.0267 19.1C42.2721 19.3133 42.5921 19.42 42.9867 19.42C43.3921 19.42 43.7121 19.3293 43.9467 19.148C44.1814 18.956 44.2987 18.6947 44.2987 18.364C44.2987 18.0867 44.2027 17.8573 44.0107 17.676C43.8294 17.4947 43.6001 17.3453 43.3227 17.228C43.0561 17.1107 42.6721 16.9773 42.1707 16.828C41.4454 16.604 40.8534 16.38 40.3947 16.156C39.9361 15.932 39.5414 15.6013 39.2107 15.164C38.8801 14.7267 38.7147 14.156 38.7147 13.452C38.7147 12.4067 39.0934 11.5907 39.8507 11.004C40.6081 10.4067 41.5947 10.108 42.8107 10.108C44.0481 10.108 45.0454 10.4067 45.8027 11.004C46.5601 11.5907 46.9654 12.412 47.0187 13.468H44.0587C44.0374 13.1053 43.9041 12.8227 43.6587 12.62C43.4134 12.4067 43.0987 12.3 42.7147 12.3C42.3841 12.3 42.1174 12.3907 41.9147 12.572C41.7121 12.7427 41.6107 12.9933 41.6107 13.324C41.6107 13.6867 41.7814 13.9693 42.1227 14.172C42.4641 14.3747 42.9974 14.5933 43.7227 14.828C44.4481 15.0733 45.0347 15.308 45.4827 15.532C45.9414 15.756 46.3361 16.0813 46.6667 16.508C46.9974 16.9347 47.1627 17.484 47.1627 18.156C47.1627 18.796 46.9974 19.3773 46.6667 19.9C46.3467 20.4227 45.8774 20.8387 45.2587 21.148C44.6401 21.4573 43.9094 21.612 43.0667 21.612ZM54.3345 12.476C55.3585 12.476 56.1798 12.8173 56.7985 13.5C57.4172 14.172 57.7265 15.1 57.7265 16.284V21.5H55.0065V16.652C55.0065 16.0547 54.8518 15.5907 54.5425 15.26C54.2332 14.9293 53.8172 14.764 53.2945 14.764C52.7718 14.764 52.3558 14.9293 52.0465 15.26C51.7372 15.5907 51.5825 16.0547 51.5825 16.652V21.5H48.8465V9.66H51.5825V13.772C51.8598 13.3773 52.2385 13.0627 52.7185 12.828C53.1985 12.5933 53.7372 12.476 54.3345 12.476ZM61.0037 11.644C60.5237 11.644 60.1291 11.5053 59.8197 11.228C59.5211 10.94 59.3717 10.588 59.3717 10.172C59.3717 9.74533 59.5211 9.39333 59.8197 9.116C60.1291 8.828 60.5237 8.684 61.0037 8.684C61.4731 8.684 61.8571 8.828 62.1557 9.116C62.4651 9.39333 62.6197 9.74533 62.6197 10.172C62.6197 10.588 62.4651 10.94 62.1557 11.228C61.8571 11.5053 61.4731 11.644 61.0037 11.644ZM62.3637 12.572V21.5H59.6277V12.572H62.3637ZM68.8265 14.844H67.3545V21.5H64.6185V14.844H63.6265V12.572H64.6185V12.316C64.6185 11.2173 64.9332 10.3853 65.5625 9.82C66.1918 9.244 67.1145 8.956 68.3305 8.956C68.5332 8.956 68.6825 8.96133 68.7785 8.972V11.292C68.2558 11.26 67.8878 11.3347 67.6745 11.516C67.4612 11.6973 67.3545 12.0227 67.3545 12.492V12.572H68.8265V14.844ZM75.0881 19.18V21.5H73.6961C72.7041 21.5 71.9308 21.26 71.3761 20.78C70.8215 20.2893 70.5441 19.4947 70.5441 18.396V14.844H69.4561V12.572H70.5441V10.396H73.2801V12.572H75.0721V14.844H73.2801V18.428C73.2801 18.6947 73.3441 18.8867 73.4721 19.004C73.6001 19.1213 73.8135 19.18 74.1121 19.18H75.0881Z" fill="#2F353B"/>
<path d="M83.4121 15.74C84.0628 15.8787 84.5855 16.204 84.9801 16.716C85.3748 17.2173 85.5721 17.7933 85.5721 18.444C85.5721 19.3827 85.2415 20.1293 84.5801 20.684C83.9295 21.228 83.0175 21.5 81.8441 21.5H76.6121V10.268H81.6681C82.8095 10.268 83.7001 10.5293 84.3401 11.052C84.9908 11.5747 85.3161 12.284 85.3161 13.18C85.3161 13.8413 85.1401 14.3907 84.7881 14.828C84.4468 15.2653 83.9881 15.5693 83.4121 15.74ZM79.3481 14.812H81.1401C81.5881 14.812 81.9295 14.716 82.1641 14.524C82.4095 14.3213 82.5321 14.028 82.5321 13.644C82.5321 13.26 82.4095 12.9667 82.1641 12.764C81.9295 12.5613 81.5881 12.46 81.1401 12.46H79.3481V14.812ZM81.3641 19.292C81.8228 19.292 82.1748 19.1907 82.4201 18.988C82.6761 18.7747 82.8041 18.4707 82.8041 18.076C82.8041 17.6813 82.6708 17.372 82.4041 17.148C82.1481 16.924 81.7908 16.812 81.3321 16.812H79.3481V19.292H81.3641ZM88.535 11.644C88.055 11.644 87.6603 11.5053 87.351 11.228C87.0523 10.94 86.903 10.588 86.903 10.172C86.903 9.74533 87.0523 9.39333 87.351 9.116C87.6603 8.828 88.055 8.684 88.535 8.684C89.0043 8.684 89.3883 8.828 89.687 9.116C89.9963 9.39333 90.151 9.74533 90.151 10.172C90.151 10.588 89.9963 10.94 89.687 11.228C89.3883 11.5053 89.0043 11.644 88.535 11.644ZM89.895 12.572V21.5H87.159V12.572H89.895ZM96.8537 19.18V21.5H95.4617C94.4697 21.5 93.6964 21.26 93.1417 20.78C92.5871 20.2893 92.3097 19.4947 92.3097 18.396V14.844H91.2217V12.572H92.3097V10.396H95.0457V12.572H96.8377V14.844H95.0457V18.428C95.0457 18.6947 95.1097 18.8867 95.2377 19.004C95.3657 19.1213 95.5791 19.18 95.8777 19.18H96.8537ZM106.794 16.892C106.794 17.148 106.778 17.4147 106.746 17.692H100.554C100.596 18.2467 100.772 18.6733 101.082 18.972C101.402 19.26 101.791 19.404 102.25 19.404C102.932 19.404 103.407 19.116 103.674 18.54H106.586C106.436 19.1267 106.164 19.6547 105.77 20.124C105.386 20.5933 104.9 20.9613 104.314 21.228C103.727 21.4947 103.071 21.628 102.346 21.628C101.471 21.628 100.692 21.4413 100.01 21.068C99.3271 20.6947 98.7937 20.1613 98.4097 19.468C98.0257 18.7747 97.8337 17.964 97.8337 17.036C97.8337 16.108 98.0204 15.2973 98.3937 14.604C98.7777 13.9107 99.3111 13.3773 99.9937 13.004C100.676 12.6307 101.46 12.444 102.346 12.444C103.21 12.444 103.978 12.6253 104.65 12.988C105.322 13.3507 105.844 13.868 106.218 14.54C106.602 15.212 106.794 15.996 106.794 16.892ZM103.994 16.172C103.994 15.7027 103.834 15.3293 103.514 15.052C103.194 14.7747 102.794 14.636 102.314 14.636C101.855 14.636 101.466 14.7693 101.146 15.036C100.836 15.3027 100.644 15.6813 100.57 16.172H103.994Z" fill="#FD4C3F"/>
</svg>
